<svg width="379" height="87" viewBox="0 0 379 87" fill="none" xmlns="http://www.w3.org/2000/svg">
<path d="M83.5198 19.29C82.6798 14.02 81.1599 9.72999 78.3499 7.17999C73.4099 1.73999 61.9998 1.15 49.5898 0.910004C47.3398 0.870004 45.0699 0.829993 42.7899 0.789993C27.9199 1.09999 13.0599 0.759993 7.22986 7.17999C0.809858 13.01 1.14984 27.87 0.839844 42.74C0.909844 46.35 0.949845 49.96 1.05984 53.43C1.38985 64.28 2.36984 73.88 7.23984 78.3C13.0698 84.72 27.9298 84.38 42.7998 84.69C51.0198 84.52 59.2499 84.55 65.9398 83.52C71.3499 82.69 75.7498 81.17 78.3598 78.3C84.7798 72.47 84.4398 57.61 84.7498 42.74C84.5698 34.38 84.5998 26.03 83.5198 19.29Z" fill="#3B95B8"/>
<path d="M22.4097 61.93L39.0997 44.18L23.4597 24.06L24.3397 21.51L47.2597 21.07C51.8297 20.95 56.0697 20.69 59.9997 20.28L60.6996 20.98C60.8196 25.2 61.0797 29.27 61.4897 33.19L57.7097 33.8C57.3597 30.58 56.5097 28.34 55.1597 27.08C53.8097 25.82 51.5897 25.19 48.4797 25.19H32.1497L45.1497 41.62L45.0597 43.38L30.2097 59.11H49.6996C51.9296 59.11 53.6097 58.89 54.7497 58.45C55.8897 58.01 56.7696 57.21 57.3896 56.03C58.0096 54.86 58.5797 53.01 59.0997 50.5L62.8797 50.15L63.1396 50.41C62.3196 54.98 61.7897 59.49 61.5597 63.94L60.4196 65.08L29.5097 64.73L23.5397 65.17L22.4097 61.93Z" fill="white"/>
<path d="M133.84 60.15C138.81 61.54 142.34 63.28 144.42 65.39C146.5 67.5 147.54 70.35 147.54 73.94C147.54 75.32 147.32 76.65 146.88 77.91C146.44 79.17 145.89 80.35 145.23 81.45C144.57 82.55 143.81 83.57 142.96 84.52C142.11 85.46 141.28 86.25 140.46 86.88C139.58 86.12 138.51 85.23 137.25 84.19C135.99 83.15 134.92 82.25 134.04 81.5C134.98 80.56 135.8 79.58 136.5 78.57C137.19 77.56 137.54 76.4 137.54 75.08C137.54 73.44 136.83 72.17 135.42 71.26C134 70.35 132.1 69.57 129.71 68.95L124.33 67.53C120.87 66.65 117.87 65.52 115.36 64.13C112.84 62.75 110.76 61.05 109.13 59.03C107.49 57.01 106.28 54.68 105.49 52.04C104.7 49.39 104.31 46.34 104.31 42.88C104.31 39.42 104.78 36.13 105.73 33.01C106.67 29.89 108.12 27.14 110.07 24.75C112.02 22.36 114.49 20.45 117.48 19.04C120.47 17.62 123.98 16.91 128.01 16.91C133.68 16.91 138.3 18.28 141.89 21.02C145.48 23.76 147.71 28.15 148.6 34.2L138.12 35.81C137.55 32.41 136.48 29.86 134.91 28.16C133.34 26.46 130.94 25.61 127.73 25.61C125.52 25.61 123.65 26.07 122.11 26.98C120.57 27.89 119.29 29.12 118.29 30.66C117.28 32.2 116.56 34 116.12 36.04C115.68 38.09 115.46 40.21 115.46 42.41C115.46 45.24 115.77 47.59 116.4 49.45C117.03 51.31 117.91 52.84 119.04 54.03C120.17 55.23 121.49 56.17 123.01 56.86C124.52 57.55 126.16 58.12 127.92 58.56L133.84 60.15Z" fill="#1A1A1A"/>
<path d="M199 67.51H189.18V33.23L166.33 67.51H156.79V17.83H166.61V52.21L189.47 17.83H199.01V67.51H199Z" fill="#1A1A1A"/>
<path d="M244.9 17.83V26.9H221.67V67.51H210.9V17.83H244.9Z" fill="#1A1A1A"/>
<path d="M252.17 17.83H264.26L280.03 56.27L296.18 17.83H307.51V67.51H297.78V34.65L283.61 67.52H275.49L261.89 34.65V67.52H252.16V17.83H252.17Z" fill="#1A1A1A"/>
<path d="M364.09 43.62L367.11 53.82C367.8 56.21 368.54 57.88 369.33 58.83C370.12 59.77 371.33 60.25 372.97 60.25C373.6 60.25 374.25 60.17 374.91 60.01C375.57 59.85 376.15 59.68 376.66 59.49L378.55 67.23C377.42 67.73 376.17 68.14 374.82 68.46C373.47 68.77 372.16 68.93 370.9 68.93C369.64 68.93 368.47 68.8 367.41 68.55C366.34 68.3 365.35 67.84 364.43 67.18C363.52 66.52 362.68 65.62 361.93 64.49C361.17 63.36 360.51 61.88 359.95 60.05L357.78 53.44C357.02 55.27 356.13 57.11 355.09 58.97C354.05 60.83 352.81 62.5 351.36 63.97C349.91 65.45 348.2 66.66 346.21 67.61C344.23 68.55 341.91 69.03 339.27 69.03C335.68 69.03 332.53 68.38 329.83 67.09C327.12 65.8 324.87 64.02 323.08 61.75C321.29 59.48 319.95 56.79 319.07 53.67C318.19 50.55 317.75 47.17 317.75 43.52C317.75 39.55 318.22 35.93 319.17 32.66C320.11 29.39 321.55 26.58 323.47 24.25C325.39 21.92 327.78 20.11 330.65 18.82C333.51 17.53 336.87 16.88 340.71 16.88C343.23 16.88 345.43 17.23 347.32 17.92C349.21 18.61 350.86 19.65 352.28 21.04C353.7 22.43 354.94 24.13 356.01 26.14C357.08 28.16 358.09 30.48 359.03 33.13L364.22 18.4H374.8L364.09 43.62ZM340 60.33C341.57 60.33 342.99 60 344.25 59.34C345.51 58.68 346.69 57.67 347.79 56.32C348.89 54.97 349.98 53.2 351.05 51.03C352.12 48.86 353.22 46.26 354.35 43.24C353.47 40.22 352.6 37.61 351.75 35.4C350.9 33.2 349.94 31.37 348.87 29.92C347.8 28.47 346.59 27.39 345.23 26.66C343.88 25.94 342.29 25.57 340.46 25.57C336.49 25.57 333.58 27.18 331.72 30.39C329.86 33.6 328.93 37.98 328.93 43.52C328.93 45.91 329.17 48.13 329.64 50.18C330.11 52.23 330.8 54 331.72 55.52C332.63 57.03 333.78 58.21 335.17 59.06C336.57 59.91 338.18 60.33 340 60.33Z" fill="#1A1A1A"/>
</svg>
