<svg width="115" height="134" viewBox="0 0 115 134" fill="none" xmlns="http://www.w3.org/2000/svg">
<path d="M0.0410804 46.3896C0.0410804 38.2496 0.0610807 30.0996 0.0110807 21.9596C0.0110807 20.9296 0.33108 20.4996 1.27108 20.1596C19.5911 13.5396 37.8911 6.87955 56.1811 0.199553C56.9911 -0.0904467 57.6711 -0.0504467 58.4511 0.229553C76.6111 6.85955 94.7611 13.4796 112.941 20.0496C114.101 20.4696 114.501 20.9896 114.501 22.2396C114.451 36.7396 114.401 51.2396 114.481 65.7296C114.631 90.1196 103.651 108.37 83.7511 121.71C76.0011 126.9 67.6311 130.83 58.6411 133.42C57.8611 133.65 57.0911 133.8 56.3011 133.55C38.1911 127.99 22.5411 118.74 11.2511 103.14C3.81108 92.8596 0.30108 81.1996 0.0710802 68.5796C-0.0689198 61.1796 0.0410804 53.7796 0.0410804 46.3896ZM47.6211 92.5295C48.1711 92.4095 48.4111 91.9995 48.7111 91.6896C53.4211 86.9896 58.1311 82.2795 62.8311 77.5796C71.3311 69.0796 79.8211 60.5696 88.3411 52.0996C89.0811 51.3596 89.1011 50.9696 88.3411 50.2496C86.6711 48.6996 85.0311 47.0896 83.5011 45.3996C82.6711 44.4796 82.2211 44.6696 81.4411 45.4496C70.5811 56.3596 59.6711 67.2296 48.8211 78.1395C47.9811 78.9895 47.5411 79.1096 46.6411 78.1796C42.0911 73.5295 37.4611 68.9495 32.8611 64.3495C32.4211 63.9095 32.1011 63.3296 31.3611 64.1096C29.5911 65.9895 27.7411 67.7995 25.8911 69.5895C25.3611 70.0995 25.4211 70.3996 25.9111 70.8895C32.9511 77.8996 39.9711 84.9296 46.9911 91.9495C47.1911 92.1495 47.4211 92.3396 47.6111 92.5096L47.6211 92.5295Z" fill="white"/>
</svg>
