<svg width="62" height="72" viewBox="0 0 62 72" fill="none" xmlns="http://www.w3.org/2000/svg">
<path d="M0.655064 24.7141C0.655064 20.3775 0.66572 16.0356 0.639082 11.699C0.639082 11.1502 0.809562 10.9212 1.31035 10.74C11.0703 7.21321 20.8197 3.66509 30.5637 0.106312C30.9952 -0.0481856 31.3575 -0.0268755 31.7731 0.122295C41.4478 3.65443 51.1172 7.18125 60.8027 10.6814C61.4207 10.9052 61.6338 11.1822 61.6338 11.8481C61.6071 19.573 61.5805 27.2979 61.6231 35.0175C61.703 48.0113 55.8534 57.734 45.2517 64.8409C41.1228 67.6059 36.6637 69.6996 31.8743 71.0794C31.4587 71.2019 31.0485 71.2819 30.6276 71.1487C20.9795 68.1866 12.642 63.2586 6.6272 54.9477C2.66354 49.471 0.793579 43.2591 0.671047 36.5358C0.596462 32.5935 0.655064 28.6511 0.655064 24.7141ZM26.0034 49.2952C26.2964 49.2313 26.4242 49.0129 26.5841 48.8477C29.0933 46.3438 31.6026 43.8345 34.1065 41.3306C38.6349 36.8022 43.1579 32.2685 47.697 27.7561C48.0912 27.3619 48.1019 27.1541 47.697 26.7705C46.8073 25.9447 45.9336 25.087 45.1185 24.1867C44.6763 23.6965 44.4365 23.7978 44.021 24.2133C38.2353 30.0256 32.423 35.8166 26.6427 41.6289C26.1952 42.0818 25.9607 42.1457 25.4813 41.6502C23.0572 39.1729 20.5906 36.7329 18.14 34.2823C17.9055 34.0479 17.7351 33.7389 17.3408 34.1544C16.3979 35.156 15.4123 36.1203 14.4267 37.0739C14.1443 37.3456 14.1763 37.5054 14.4373 37.7665C18.1879 41.5011 21.9278 45.2463 25.6677 48.9862C25.7743 49.0928 25.8968 49.194 25.998 49.2846L26.0034 49.2952Z" fill="#3B93B7"/>
</svg>
