<svg width="70" height="71" viewBox="0 0 70 71" fill="none" xmlns="http://www.w3.org/2000/svg">
<path d="M35.1019 57.8574C28.3679 57.8574 21.6339 57.8468 14.8999 57.8734C14.2287 57.8734 14.0369 57.7242 14.0369 57.0317C14.0635 49.4186 14.0316 41.811 14.0582 34.1979C14.1008 23.6868 21.6978 14.9283 32.0865 13.362C43.7697 11.604 54.7817 20.1706 55.9963 31.9604C56.0816 32.8075 56.1242 33.6492 56.1242 34.5016C56.1242 41.9761 56.1082 49.4506 56.1455 56.9251C56.1455 57.7562 55.8951 57.8841 55.1386 57.8787C48.4579 57.8468 41.7772 57.8627 35.0965 57.8627L35.1019 57.8574ZM37.7177 34.2352C37.7177 30.9535 37.7017 27.6664 37.7337 24.3847C37.7337 23.7986 37.5738 23.6441 37.0038 23.6654C35.6932 23.7081 34.3773 23.6974 33.0614 23.6654C32.6086 23.6548 32.4487 23.772 32.4541 24.2568C32.4701 30.8789 32.4701 37.5063 32.4541 44.1284C32.4541 44.6026 32.5979 44.7304 33.0561 44.7251C34.34 44.6985 35.6293 44.6825 36.9132 44.7251C37.5418 44.7464 37.7443 44.5919 37.7337 43.926C37.6964 40.6975 37.7177 37.469 37.7177 34.2352ZM35.0912 47.3409C33.6528 47.3409 32.4754 48.5076 32.4647 49.9407C32.4541 51.3685 33.6208 52.5725 35.0486 52.5938C36.5083 52.6152 37.7283 51.4111 37.7177 49.9514C37.707 48.5236 36.519 47.3462 35.0912 47.3409Z" fill="#3B93B7"/>
<path d="M35.0912 71.0004C26.8229 71.0004 18.5546 71.0004 10.281 71.0004C7.91557 71.0004 6.14685 69.2689 6.16816 67.0207C6.18414 64.9696 7.81966 63.2488 9.87075 63.1263C10.0359 63.1156 10.2011 63.121 10.3609 63.121C26.8442 63.121 43.3275 63.121 59.8109 63.121C62.0857 63.121 63.8012 64.5967 63.993 66.6904C64.2114 69.0292 62.4 70.995 59.976 71.0004C53.8973 71.0163 47.8186 71.0004 41.7399 71.0057C39.5237 71.0057 37.3021 71.0057 35.0859 71.0057L35.0912 71.0004Z" fill="#3B93B7"/>
<path d="M6.9354 14.923C7.05793 14.9869 7.20175 15.0562 7.3456 15.1361C9.25817 16.2389 11.1708 17.3523 13.094 18.4391C13.5202 18.6789 13.6054 18.8707 13.3337 19.3129C12.6198 20.4743 11.9432 21.6623 11.2826 22.8556C11.0749 23.2339 10.8937 23.2765 10.5261 23.0581C8.54963 21.8967 6.56777 20.7513 4.57528 19.6165C4.27694 19.446 4.19704 19.3075 4.3835 18.9932C5.1187 17.7519 5.8326 16.4893 6.56247 15.2426C6.64238 15.1041 6.70632 14.939 6.9354 14.9283V14.923Z" fill="#3B93B7"/>
<path d="M59.2995 23.2285C59.0331 23.2072 58.9905 22.9941 58.8999 22.8396C58.1967 21.6356 57.5094 20.4263 56.8009 19.2329C56.6197 18.9239 56.5824 18.7374 56.9553 18.5243C58.9478 17.3949 60.935 16.2548 62.9115 15.0881C63.3057 14.8537 63.4709 14.9602 63.668 15.3118C64.35 16.5265 65.0425 17.7305 65.7564 18.9292C65.9429 19.2436 65.9695 19.4194 65.6019 19.6271C63.6094 20.7566 61.6276 21.9073 59.6404 23.0527C59.5232 23.122 59.4007 23.1753 59.2941 23.2285H59.2995Z" fill="#3B93B7"/>
<path d="M24.1166 9.98438C24.1379 10.2081 23.9514 10.2561 23.8182 10.3307C22.5663 11.0605 21.309 11.7691 20.0677 12.5096C19.7533 12.6961 19.6042 12.6375 19.4284 12.3338C18.2776 10.32 17.1216 8.31154 15.9495 6.3084C15.7684 5.9994 15.8163 5.83426 16.1253 5.66377C17.3826 4.94989 18.6293 4.22002 19.8812 3.49547C20.1156 3.36229 20.2914 3.28238 20.4672 3.5967C21.6446 5.65844 22.838 7.70953 24.026 9.76595C24.0686 9.83521 24.09 9.91513 24.1166 9.98971V9.98438Z" fill="#3B93B7"/>
<path d="M54.3449 6.06866C54.2969 6.16456 54.2223 6.3084 54.1424 6.45224C53.0396 8.36482 51.9208 10.2721 50.8393 12.2006C50.5943 12.6322 50.4025 12.7014 49.9656 12.4297C48.8309 11.7265 47.6695 11.0605 46.4974 10.4159C46.1245 10.2081 45.9647 10.059 46.231 9.62212C47.3871 7.67225 48.5059 5.70639 49.63 3.74054C49.7951 3.45818 49.9123 3.2504 50.3013 3.48482C51.5372 4.23067 52.7998 4.93924 54.0518 5.66378C54.185 5.74369 54.3662 5.80229 54.3449 6.06866Z" fill="#3B93B7"/>
<path d="M32.4595 3.93232C32.4595 2.81354 32.4755 1.68943 32.4542 0.570652C32.4435 0.155106 32.5501 -0.00472319 32.9976 0.000604323C34.3934 0.0272419 35.7892 0.0272419 37.1797 0.000604323C37.6272 -0.0100507 37.7284 0.155106 37.7231 0.570652C37.7071 2.84017 37.7071 5.1097 37.7231 7.37922C37.7231 7.75747 37.6272 7.91196 37.2223 7.90664C35.7999 7.88533 34.3774 7.88533 32.955 7.90664C32.5501 7.91196 32.4435 7.75747 32.4542 7.37922C32.4702 6.22848 32.4595 5.08306 32.4595 3.93232Z" fill="#3B93B7"/>
<path d="M4.81498 36.8191C3.6962 36.8191 2.5721 36.7978 1.45332 36.8297C1.01114 36.8404 0.893951 36.6859 0.904606 36.265C0.925916 34.8958 0.931244 33.532 0.904606 32.1628C0.893951 31.7153 1.00582 31.5448 1.49062 31.5502C3.7335 31.5768 5.97639 31.5715 8.21927 31.5502C8.69342 31.5502 8.82127 31.6993 8.81061 32.1575C8.78398 33.4947 8.76799 34.8372 8.81061 36.1798C8.83192 36.7658 8.58688 36.8457 8.09675 36.8351C7.00461 36.8084 5.90712 36.8244 4.81498 36.8244V36.8191Z" fill="#3B93B7"/>
<path d="M65.3249 36.819C64.2328 36.819 63.1353 36.8031 62.0431 36.8297C61.5796 36.8403 61.3559 36.7604 61.3719 36.217C61.4145 34.8532 61.3985 33.484 61.3719 32.1148C61.3666 31.6886 61.4891 31.5501 61.9259 31.5554C64.1955 31.5768 66.465 31.5714 68.7345 31.5554C69.0968 31.5554 69.2832 31.6194 69.2726 32.0403C69.2513 33.4627 69.2459 34.8851 69.2726 36.3076C69.2832 36.7871 69.0541 36.8297 68.6759 36.8244C67.5571 36.8084 66.433 36.819 65.3142 36.819H65.3249Z" fill="#3B93B7"/>
</svg>
