<svg width="129" height="134" viewBox="0 0 129 134" fill="none" xmlns="http://www.w3.org/2000/svg">
<path d="M64.1913 108.601C51.5513 108.601 38.9112 108.581 26.2712 108.631C25.0112 108.631 24.6512 108.351 24.6512 107.051C24.7012 92.7609 24.6413 78.4809 24.6913 64.1909C24.7713 44.4609 39.0312 28.0209 58.5312 25.0809C80.4613 21.7809 101.131 37.8609 103.411 59.9909C103.571 61.5809 103.651 63.1609 103.651 64.7609C103.651 78.7909 103.621 92.821 103.691 106.851C103.691 108.411 103.221 108.651 101.801 108.641C89.2613 108.581 76.7213 108.611 64.1813 108.611L64.1913 108.601ZM69.1013 64.2609C69.1013 58.1009 69.0713 51.9309 69.1313 45.7709C69.1313 44.6709 68.8312 44.3809 67.7612 44.4209C65.3012 44.5009 62.8313 44.4809 60.3613 44.4209C59.5113 44.4009 59.2113 44.6209 59.2213 45.5309C59.2513 57.9609 59.2513 70.4009 59.2213 82.8309C59.2213 83.7209 59.4913 83.9609 60.3513 83.9509C62.7613 83.9009 65.1812 83.8709 67.5912 83.9509C68.7712 83.9909 69.1513 83.7009 69.1313 82.4509C69.0613 76.3909 69.1013 70.3309 69.1013 64.2609ZM64.1713 88.8609C61.4713 88.8609 59.2613 91.0509 59.2413 93.7409C59.2213 96.4209 61.4112 98.6809 64.0912 98.7209C66.8312 98.7609 69.1213 96.5009 69.1013 93.7609C69.0813 91.0809 66.8513 88.8709 64.1713 88.8609Z" fill="white"/>
<path d="M64.1712 133.271C48.6512 133.271 33.1312 133.271 17.6012 133.271C13.1612 133.271 9.84122 130.021 9.88122 125.801C9.91122 121.951 12.9812 118.721 16.8312 118.491C17.1412 118.471 17.4512 118.481 17.7512 118.481C48.6912 118.481 79.6312 118.481 110.571 118.481C114.841 118.481 118.061 121.251 118.421 125.181C118.831 129.571 115.431 133.261 110.881 133.271C99.4712 133.301 88.0612 133.271 76.6512 133.281C72.4912 133.281 68.3212 133.281 64.1612 133.281L64.1712 133.271Z" fill="white"/>
<path d="M11.3214 28.0109C11.5514 28.1309 11.8213 28.2609 12.0913 28.4109C15.6813 30.4809 19.2713 32.5709 22.8813 34.6109C23.6813 35.0609 23.8413 35.4209 23.3313 36.2509C21.9913 38.4309 20.7213 40.6609 19.4813 42.9009C19.0913 43.6109 18.7513 43.6909 18.0613 43.2809C14.3513 41.1009 10.6313 38.9509 6.8913 36.8209C6.3313 36.5009 6.18131 36.2409 6.53131 35.6509C7.91131 33.3209 9.25134 30.9509 10.6213 28.6109C10.7713 28.3509 10.8914 28.0409 11.3214 28.0209V28.0109Z" fill="white"/>
<path d="M109.611 43.601C109.111 43.561 109.031 43.161 108.861 42.871C107.541 40.611 106.251 38.341 104.921 36.101C104.581 35.521 104.511 35.171 105.211 34.771C108.951 32.651 112.681 30.511 116.391 28.321C117.131 27.881 117.441 28.081 117.811 28.741C119.091 31.021 120.391 33.281 121.731 35.531C122.081 36.121 122.131 36.451 121.441 36.841C117.701 38.961 113.981 41.121 110.251 43.271C110.031 43.401 109.801 43.501 109.601 43.601H109.611Z" fill="white"/>
<path d="M43.5713 18.7409C43.6113 19.1609 43.2612 19.2509 43.0112 19.3909C40.6612 20.7609 38.3013 22.0909 35.9713 23.4809C35.3813 23.8309 35.1012 23.7209 34.7712 23.1509C32.6112 19.3709 30.4413 15.6009 28.2413 11.8409C27.9013 11.2609 27.9913 10.9509 28.5713 10.6309C30.9313 9.29088 33.2713 7.92088 35.6213 6.56088C36.0613 6.31088 36.3913 6.16088 36.7213 6.75088C38.9313 10.6209 41.1712 14.4709 43.4012 18.3309C43.4812 18.4609 43.5213 18.6109 43.5713 18.7509V18.7409Z" fill="white"/>
<path d="M100.311 11.3909C100.221 11.5709 100.081 11.8409 99.9313 12.1109C97.8613 15.7009 95.7613 19.2809 93.7313 22.9009C93.2713 23.7109 92.9113 23.8409 92.0913 23.3309C89.9613 22.0109 87.7813 20.7609 85.5813 19.5509C84.8813 19.1609 84.5813 18.8809 85.0813 18.0609C87.2513 14.4009 89.3513 10.7109 91.4613 7.0209C91.7713 6.4909 91.9913 6.10089 92.7213 6.54089C95.0413 7.94089 97.4113 9.27092 99.7613 10.6309C100.011 10.7809 100.351 10.8909 100.311 11.3909Z" fill="white"/>
<path d="M59.2313 7.38093C59.2313 5.28093 59.2613 3.17091 59.2213 1.07091C59.2013 0.290913 59.4013 -0.00909479 60.2413 0.000905213C62.8613 0.0509052 65.4813 0.0509052 68.0913 0.000905213C68.9313 -0.0190948 69.1213 0.290913 69.1113 1.07091C69.0813 5.33091 69.0813 9.59093 69.1113 13.8509C69.1113 14.5609 68.9313 14.8509 68.1713 14.8409C65.5013 14.8009 62.8313 14.8009 60.1613 14.8409C59.4013 14.8509 59.2013 14.5609 59.2213 13.8509C59.2513 11.6909 59.2313 9.54093 59.2313 7.38093Z" fill="white"/>
<path d="M7.34123 69.1109C5.24123 69.1109 3.13124 69.0709 1.03124 69.1309C0.201237 69.1509 -0.0187318 68.8609 0.00126821 68.0709C0.0412682 65.5009 0.0512682 62.9409 0.00126821 60.3709C-0.0187318 59.5309 0.191244 59.2109 1.10124 59.2209C5.31124 59.2709 9.52125 59.2609 13.7312 59.2209C14.6212 59.2209 14.8612 59.5009 14.8412 60.3609C14.7912 62.8709 14.7612 65.3909 14.8412 67.9109C14.8812 69.0109 14.4213 69.1609 13.5013 69.1409C11.4513 69.0909 9.39123 69.1209 7.34123 69.1209V69.1109Z" fill="white"/>
<path d="M120.921 69.1109C118.871 69.1109 116.811 69.0809 114.761 69.1309C113.891 69.1509 113.471 69.0009 113.501 67.9809C113.581 65.4209 113.551 62.8509 113.501 60.2809C113.491 59.4809 113.721 59.2209 114.541 59.2309C118.801 59.2709 123.061 59.2609 127.321 59.2309C128.001 59.2309 128.351 59.3509 128.331 60.1409C128.291 62.8109 128.281 65.4809 128.331 68.1509C128.351 69.0509 127.921 69.1309 127.211 69.1209C125.111 69.0909 123.001 69.1109 120.901 69.1109H120.921Z" fill="white"/>
</svg>
