<svg width="134" height="134" viewBox="0 0 134 134" fill="none" xmlns="http://www.w3.org/2000/svg">
<path d="M76.3221 90.8611C76.3221 86.9411 76.3421 83.0211 76.3121 79.0911C76.3121 78.2611 76.4621 77.7911 77.3421 77.4411C86.2321 73.9311 95.1121 70.3611 103.982 66.7911C104.682 66.5111 105.272 66.5211 105.962 66.8011C114.742 70.3411 123.532 73.8611 132.332 77.3411C133.262 77.7111 133.582 78.1411 133.572 79.1611C133.522 86.2611 133.522 93.3611 133.552 100.461C133.602 110.231 129.372 117.941 122.142 124.191C117.402 128.291 112.012 131.311 106.112 133.411C105.512 133.621 104.952 133.841 104.252 133.591C94.7121 130.101 86.4321 124.901 80.7621 116.211C77.8421 111.741 76.4121 106.781 76.3421 101.441C76.2921 97.9211 76.3421 94.3911 76.3421 90.8711L76.3221 90.8611Z" fill="white"/>
<path d="M71.5521 4.74112C71.5521 5.88112 71.4621 7.03112 71.5721 8.16112C71.7021 9.40112 71.1721 9.59112 70.0721 9.61112C40.5521 10.2111 15.2021 32.1911 10.4321 61.2611C9.94211 64.2511 9.5921 67.2611 9.6021 70.2911C9.6021 71.3811 9.2321 71.6011 8.2321 71.5711C5.9521 71.5011 3.66206 71.4811 1.38206 71.5711C0.252064 71.6211 -0.0278798 71.2811 0.00212017 70.1711C0.30212 58.4011 3.17212 47.3111 8.94212 37.0411C18.1921 20.5911 31.8421 9.38112 49.7621 3.43112C56.3921 1.23112 63.2421 0.161123 70.2321 0.00112331C71.2621 -0.0188767 71.6521 0.221123 71.5621 1.29112C71.4721 2.42112 71.5421 3.57112 71.5421 4.71112L71.5521 4.74112Z" fill="white"/>
<path d="M71.5521 23.8811C71.5521 25.0711 71.4821 26.2711 71.5721 27.4511C71.6521 28.4711 71.2321 28.6411 70.3021 28.6811C58.6621 29.1311 48.7121 33.4911 40.6221 41.8811C33.0421 49.7511 29.1121 59.2311 28.6821 70.1411C28.6321 71.3411 28.2821 71.6211 27.1621 71.5811C24.9321 71.5011 22.6921 71.4911 20.4621 71.5811C19.3421 71.6311 19.0421 71.3111 19.0921 70.1811C19.5821 57.2311 24.0421 45.8411 32.8021 36.2911C42.7721 25.4111 55.2621 19.7711 70.0121 19.1011C71.2321 19.0411 71.7121 19.3111 71.5721 20.6011C71.4521 21.6811 71.5521 22.7811 71.5521 23.8711V23.8811Z" fill="white"/>
<path d="M43.0121 71.5511C41.8721 71.5511 40.7221 71.4611 39.5921 71.5711C38.3621 71.6911 38.1421 71.2011 38.1721 70.0811C38.5421 57.4211 47.1721 45.2511 59.1221 40.5711C62.7121 39.1711 66.4121 38.3911 70.2621 38.1711C71.3321 38.1111 71.6021 38.4411 71.5721 39.4811C71.5021 41.8611 71.5221 44.2411 71.5721 46.6211C71.5921 47.4311 71.3821 47.6911 70.5121 47.7511C57.8121 48.5911 48.6521 57.7611 47.7521 70.5511C47.6921 71.4611 47.3521 71.6011 46.5821 71.5711C45.3921 71.5211 44.2021 71.5611 43.0121 71.5611V71.5511Z" fill="white"/>
<path d="M61.9221 71.5511C60.6821 71.5511 59.4421 71.5011 58.2121 71.5711C57.3721 71.6111 57.2521 71.2611 57.2721 70.5211C57.4921 63.8711 63.7521 57.5911 70.4721 57.2711C71.3021 57.2311 71.5921 57.4311 71.5721 58.3011C71.5221 60.7811 71.5421 63.2511 71.5721 65.7311C71.5721 66.3911 71.4921 66.7411 70.6821 66.9011C68.6621 67.3011 67.3121 68.5911 66.9121 70.6311C66.7421 71.5111 66.3521 71.6011 65.6321 71.5711C64.3921 71.5311 63.1521 71.5611 61.9221 71.5611V71.5511Z" fill="white"/>
</svg>
