<svg width="72" height="72" viewBox="0 0 72 72" fill="none" xmlns="http://www.w3.org/2000/svg">
<path d="M40.9664 48.4064C40.9664 46.3181 40.977 44.2297 40.9611 42.136C40.9611 41.6938 41.041 41.4434 41.5098 41.2569C46.2459 39.387 50.9768 37.485 55.7023 35.5831C56.0752 35.434 56.3895 35.4393 56.7571 35.5885C61.4347 37.4744 66.1175 39.3497 70.8058 41.2037C71.3012 41.4008 71.4717 41.6299 71.4664 42.1733C71.4397 45.9558 71.4397 49.7383 71.4557 53.5209C71.4824 58.7258 69.2288 62.8333 65.377 66.163C62.8518 68.3473 59.9803 69.9562 56.837 71.075C56.5174 71.1869 56.2191 71.3041 55.8461 71.1709C50.7637 69.3116 46.3525 66.5413 43.3318 61.9117C41.7761 59.5303 41.0143 56.8878 40.977 54.043C40.9504 52.1677 40.977 50.2871 40.977 48.4118L40.9664 48.4064Z" fill="#3B93B7"/>
<path d="M38.4251 2.52584C38.4251 3.13317 38.3772 3.74584 38.4358 4.34785C38.505 5.00846 38.2227 5.10968 37.6366 5.12034C21.9098 5.43999 8.40461 17.1499 5.86338 32.6369C5.60234 34.2299 5.41586 35.8334 5.42119 37.4477C5.42119 38.0284 5.22408 38.1456 4.69132 38.1296C3.47665 38.0923 2.25663 38.0816 1.04196 38.1296C0.439951 38.1562 0.290811 37.9751 0.306794 37.3837C0.466619 31.1133 1.99562 25.2051 5.06959 19.7337C9.99754 10.9699 17.2696 4.9978 26.8165 1.82793C30.3486 0.655882 33.998 0.0858386 37.7219 0.000598444C38.2706 -0.0100566 38.4784 0.117804 38.4305 0.687847C38.3825 1.28986 38.4198 1.90252 38.4198 2.50986L38.4251 2.52584Z" fill="#3B93B7"/>
<path d="M38.4251 12.7228C38.4251 13.3568 38.3878 13.9961 38.4358 14.6247C38.4784 15.1681 38.2547 15.2587 37.7592 15.28C31.558 15.5197 26.2571 17.8425 21.9472 22.3123C17.9089 26.5051 15.8152 31.5555 15.5861 37.3678C15.5595 38.0071 15.373 38.1563 14.7763 38.135C13.5883 38.0924 12.3949 38.0871 11.2069 38.135C10.6102 38.1616 10.4504 37.9912 10.477 37.3892C10.7381 30.49 13.1141 24.422 17.781 19.3342C23.0926 13.5379 29.7466 10.5332 37.6047 10.1762C38.2546 10.1443 38.5104 10.2881 38.4358 10.9754C38.3718 11.5507 38.4251 12.1368 38.4251 12.7175V12.7228Z" fill="#3B93B7"/>
<path d="M23.2204 38.1191C22.613 38.1191 22.0004 38.0712 21.3984 38.1298C20.7431 38.1937 20.6259 37.9327 20.6419 37.336C20.839 30.5913 25.4366 24.1078 31.803 21.6145C33.7156 20.8686 35.6867 20.4531 37.7378 20.3359C38.3079 20.3039 38.4517 20.4797 38.4357 21.0338C38.3984 22.3017 38.4091 23.5697 38.4357 24.8376C38.4464 25.2692 38.3345 25.4077 37.871 25.4396C31.1051 25.8872 26.2251 30.7725 25.7456 37.5864C25.7137 38.0712 25.5325 38.1458 25.1223 38.1298C24.4883 38.1031 23.8543 38.1244 23.2204 38.1244V38.1191Z" fill="#3B93B7"/>
<path d="M33.2948 38.119C32.6341 38.119 31.9735 38.0924 31.3182 38.1297C30.8707 38.151 30.8068 37.9645 30.8175 37.5703C30.9347 34.0275 34.2697 30.6818 37.8498 30.5113C38.292 30.49 38.4464 30.5966 38.4358 31.0601C38.4092 32.3813 38.4198 33.6972 38.4358 35.0184C38.4358 35.37 38.3932 35.5565 37.9617 35.6417C36.8855 35.8548 36.1663 36.5421 35.9532 37.6289C35.8626 38.0977 35.6548 38.1457 35.2712 38.1297C34.6106 38.1084 33.95 38.1243 33.2948 38.1243V38.119Z" fill="#3B93B7"/>
</svg>
