<svg width="72" height="72" viewBox="0 0 72 72" fill="none" xmlns="http://www.w3.org/2000/svg">
<path d="M35.7978 71.1223C26.6718 71.1223 17.5404 71.1223 8.41441 71.1223C3.54506 71.1223 0.316593 67.8885 0.316593 63.0138C0.316593 59.178 0.327248 55.3422 0.305938 51.5064C0.305938 50.9736 0.412488 50.7818 0.993187 50.7872C3.92865 50.8191 6.8641 50.8191 9.80489 50.7872C10.3803 50.7818 10.4975 50.963 10.4921 51.501C10.4655 54.4099 10.4975 57.324 10.4655 60.2328C10.4602 60.8295 10.6147 60.9734 11.2114 60.9734C27.668 60.9574 44.1247 60.9574 60.5814 60.9734C61.1141 60.9734 61.3006 60.8668 61.3006 60.2914C61.2846 43.8081 61.2846 27.3248 61.3006 10.8415C61.3006 10.2768 61.1355 10.1489 60.5921 10.1489C44.1354 10.1649 27.6787 10.1649 11.222 10.1489C10.6466 10.1489 10.4602 10.2714 10.4655 10.8788C10.5028 13.761 10.4655 16.6485 10.4921 19.5306C10.4975 20.1167 10.3962 20.3458 9.7303 20.3404C6.82148 20.2978 3.90734 20.3085 0.998514 20.3404C0.433798 20.3458 0.30061 20.1806 0.305938 19.6319C0.327248 15.6362 0.295283 11.6406 0.327248 7.64497C0.359213 3.37764 3.67292 0.02131 7.93493 0.0159825C26.5599 -0.00532751 45.1849 -0.00532751 63.8099 0.0159825C68.0825 0.0159825 71.4282 3.35632 71.4335 7.62366C71.4548 26.2486 71.4548 44.8736 71.4335 63.4986C71.4335 67.8352 68.0506 71.1169 63.6607 71.1223C54.3748 71.1382 45.089 71.1223 35.8031 71.1223H35.7978Z" fill="#3B93B7"/>
<path d="M38.4136 24.3948C38.4136 25.4816 38.4296 26.5631 38.4029 27.6499C38.3923 28.1027 38.4988 28.3318 38.989 28.4917C44.407 30.2444 46.9323 35.7957 45.7496 40.2388C45.6324 40.681 45.7762 40.9048 46.1598 41.1179C48.115 42.2207 50.0435 43.3714 52.0094 44.4635C52.4835 44.7299 52.4889 44.9377 52.2331 45.3586C51.5725 46.4401 50.9226 47.5322 50.3365 48.6563C50.0702 49.1571 49.8411 49.1145 49.4309 48.8694C47.5183 47.74 45.5844 46.6531 43.6772 45.5184C43.2723 45.2786 43.0272 45.2946 42.6649 45.6143C38.6533 49.1517 33.1234 49.1517 29.1011 45.6143C28.7335 45.2893 28.4884 45.2893 28.0889 45.5237C26.1763 46.6532 24.2424 47.7453 22.3351 48.8694C21.9143 49.1145 21.6905 49.1464 21.4241 48.651C20.8328 47.5322 20.1882 46.4347 19.5275 45.3532C19.2665 44.927 19.2878 44.7246 19.7566 44.4635C21.7172 43.3714 23.651 42.2207 25.6062 41.1179C25.9898 40.8994 26.1017 40.6757 26.0111 40.2335C24.951 35.0552 27.6627 30.2551 32.6226 28.5449C33.2086 28.3425 33.3738 28.0814 33.3631 27.4848C33.3258 25.3165 33.3631 23.1482 33.3365 20.9799C33.3311 20.4844 33.4377 20.2873 33.9811 20.3033C35.249 20.3459 36.5223 20.3459 37.7903 20.3033C38.3337 20.2873 38.4509 20.4791 38.4349 20.9799C38.4029 22.1146 38.4242 23.2547 38.4242 24.3895L38.4136 24.3948Z" fill="#3B93B7"/>
<path d="M10.4761 35.5878C10.4761 38.7364 10.4654 41.8796 10.4867 45.0282C10.4867 45.5769 10.3589 45.742 9.79415 45.7367C6.85869 45.7047 3.92323 45.7047 0.987771 45.7367C0.407072 45.742 0.300522 45.5502 0.30585 45.0175C0.321832 38.7257 0.32716 32.4286 0.30585 26.1368C0.30585 25.5561 0.43371 25.3803 1.04105 25.3856C3.94987 25.4176 6.85869 25.4229 9.76751 25.3856C10.3908 25.3803 10.4974 25.5774 10.4921 26.1475C10.4654 29.296 10.4814 32.4393 10.4814 35.5878H10.4761Z" fill="#3B93B7"/>
</svg>
