<svg width="134" height="134" viewBox="0 0 134 134" fill="none" xmlns="http://www.w3.org/2000/svg">
<path d="M66.6203 133.5C49.4903 133.5 32.3503 133.5 15.2203 133.5C6.08028 133.5 0.0202847 127.43 0.0202847 118.28C0.0202847 111.08 0.0402847 103.88 0.000284665 96.68C0.000284665 95.68 0.200285 95.32 1.29028 95.33C6.80028 95.39 12.3103 95.39 17.8303 95.33C18.9103 95.32 19.1303 95.66 19.1203 96.67C19.0703 102.13 19.1303 107.6 19.0703 113.06C19.0603 114.18 19.3503 114.45 20.4703 114.45C51.3603 114.42 82.2503 114.42 113.14 114.45C114.14 114.45 114.49 114.25 114.49 113.17C114.46 82.23 114.46 51.29 114.49 20.35C114.49 19.29 114.18 19.05 113.16 19.05C82.2703 19.08 51.3803 19.08 20.4903 19.05C19.4103 19.05 19.0603 19.28 19.0703 20.42C19.1403 25.83 19.0703 31.25 19.1203 36.66C19.1303 37.76 18.9403 38.19 17.6903 38.18C12.2303 38.1 6.76028 38.12 1.30028 38.18C0.240285 38.19 -0.00971534 37.88 0.000284665 36.85C0.0402847 29.35 -0.0197153 21.85 0.0402847 14.35C0.100285 6.33999 6.32028 0.04 14.3203 0.03C49.2803 -0.01 84.2403 -0.01 119.2 0.03C127.22 0.03 133.5 6.29998 133.51 14.31C133.55 49.27 133.55 84.23 133.51 119.19C133.51 127.33 127.16 133.49 118.92 133.5C101.49 133.53 84.0603 133.5 66.6303 133.5H66.6203Z" fill="white"/>
<path d="M71.5304 45.79C71.5304 47.83 71.5604 49.86 71.5104 51.9C71.4904 52.75 71.6904 53.18 72.6104 53.48C82.7804 56.77 87.5204 67.19 85.3004 75.53C85.0804 76.36 85.3504 76.78 86.0704 77.18C89.7404 79.25 93.3604 81.41 97.0504 83.46C97.9404 83.96 97.9504 84.35 97.4704 85.14C96.2304 87.17 95.0104 89.22 93.9104 91.33C93.4104 92.27 92.9804 92.19 92.2104 91.73C88.6204 89.61 84.9904 87.57 81.4104 85.44C80.6504 84.99 80.1904 85.02 79.5104 85.62C71.9804 92.26 61.6004 92.26 54.0504 85.62C53.3604 85.01 52.9004 85.01 52.1504 85.45C48.5604 87.57 44.9304 89.62 41.3504 91.73C40.5604 92.19 40.1404 92.25 39.6404 91.32C38.5304 89.22 37.3204 87.16 36.0804 85.13C35.5904 84.33 35.6304 83.95 36.5104 83.46C40.1904 81.41 43.8204 79.25 47.4904 77.18C48.2104 76.77 48.4204 76.35 48.2504 75.52C46.2604 65.8 51.3504 56.79 60.6604 53.58C61.7604 53.2 62.0704 52.71 62.0504 51.59C61.9804 47.52 62.0504 43.45 62.0004 39.38C61.9904 38.45 62.1904 38.08 63.2104 38.11C65.5904 38.19 67.9804 38.19 70.3604 38.11C71.3804 38.08 71.6004 38.44 71.5704 39.38C71.5104 41.51 71.5504 43.65 71.5504 45.78L71.5304 45.79Z" fill="white"/>
<path d="M19.0903 66.8C19.0903 72.71 19.0703 78.61 19.1103 84.52C19.1103 85.55 18.8703 85.86 17.8103 85.85C12.3003 85.79 6.79035 85.79 1.28035 85.85C0.190348 85.86 -0.00965154 85.5 0.000348458 84.5C0.0303485 72.69 0.0403485 60.87 0.000348458 49.06C0.000348458 47.97 0.240348 47.64 1.38035 47.65C6.84035 47.71 12.3003 47.72 17.7603 47.65C18.9303 47.64 19.1303 48.01 19.1203 49.08C19.0703 54.99 19.1003 60.89 19.1003 66.8H19.0903Z" fill="white"/>
</svg>
